<svg xmlns="http://www.w3.org/2000/svg" viewBox="0 0 100 80" fill="none">
  <defs>
    <linearGradient id="quoteGrad" x1="0%" y1="0%" x2="100%" y2="100%">
      <stop offset="0%" style="stop-color:#f59e0b"/>
      <stop offset="100%" style="stop-color:#d97706"/>
    </linearGradient>
  </defs>
  <!-- Left quote mark -->
  <path d="M10 50 Q10 20 30 20 L30 30 Q20 30 20 45 L30 45 L30 65 L10 65 Z" fill="url(#quoteGrad)"/>
  <!-- Right quote mark -->
  <path d="M45 50 Q45 20 65 20 L65 30 Q55 30 55 45 L65 45 L65 65 L45 65 Z" fill="url(#quoteGrad)"/>
  <!-- Star rating -->
  <g transform="translate(70, 55)">
    <polygon points="6,0 7.5,4 12,4.5 8.5,7.5 9.5,12 6,9.5 2.5,12 3.5,7.5 0,4.5 4.5,4" fill="#fbbf24" transform="scale(0.8)"/>
    <polygon points="6,0 7.5,4 12,4.5 8.5,7.5 9.5,12 6,9.5 2.5,12 3.5,7.5 0,4.5 4.5,4" fill="#fbbf24" transform="translate(12,0) scale(0.8)"/>
  </g>
</svg>
